<?xml version="1.0" encoding="UTF-8" standalone="no"?>
<!DOCTYPE svg PUBLIC "-//W3C//DTD SVG 1.1//EN" "http://www.w3.org/Graphics/SVG/1.1/DTD/svg11.dtd">
<svg width="100%" height="100%" viewBox="0 0 512 512" version="1.1" xmlns="http://www.w3.org/2000/svg" xmlns:xlink="http://www.w3.org/1999/xlink" xml:space="preserve" xmlns:serif="http://www.serif.com/" style="fill-rule:evenodd;clip-rule:evenodd;stroke-linejoin:round;stroke-miterlimit:2;">
    <g>
        <rect x="88.631" y="333.074" width="118.046" height="80.847" style="fill:rgb(37,98,182);fill-rule:nonzero;"/>
        <g>
            <g>
                <path d="M374.127,190.134C376.157,190.134 378.189,190.547 380.091,191.373L405.282,202.305L405.282,131.938L342.971,131.938L342.971,202.305L368.162,191.373C370.065,190.547 372.097,190.134 374.127,190.134Z" style="fill:rgb(37,98,182);fill-rule:nonzero;"/>
                <path d="M435.282,131.938L435.282,225.187C435.282,230.247 432.738,234.968 428.514,237.745C426.032,239.377 423.163,240.21 420.281,240.21C418.259,240.21 416.229,239.801 414.318,238.971L374.127,221.529L333.936,238.971C329.298,240.983 323.963,240.522 319.74,237.745C315.516,234.968 312.972,230.247 312.972,225.187L312.972,131.938L17.454,131.938L17.454,469.434C17.454,477.731 24.17,484.457 32.454,484.457L479.546,484.457C487.83,484.457 494.546,477.731 494.546,469.434L494.546,131.938L435.282,131.938ZM73.631,182.743L172.738,182.743C181.022,182.743 187.738,189.469 187.738,197.766C187.738,206.063 181.022,212.789 172.738,212.789L73.631,212.789C65.347,212.789 58.631,206.063 58.631,197.766C58.631,189.47 65.347,182.743 73.631,182.743ZM73.631,242.385L172.738,242.385C181.022,242.385 187.738,249.111 187.738,257.408C187.738,265.705 181.022,272.431 172.738,272.431L73.631,272.431C65.347,272.431 58.631,265.705 58.631,257.408C58.631,249.111 65.347,242.385 73.631,242.385ZM236.677,428.943C236.677,437.24 229.961,443.966 221.677,443.966L73.631,443.966C65.347,443.966 58.631,437.24 58.631,428.943L58.631,318.051C58.631,309.754 65.347,303.028 73.631,303.028L221.677,303.028C229.961,303.028 236.677,309.754 236.677,318.051L236.677,428.943Z" style="fill:rgb(37,98,182);fill-rule:nonzero;"/>
            </g>
            <g>
                <rect x="342.972" y="27.544" width="62.311" height="74.349" style="fill:rgb(37,98,182);fill-rule:nonzero;"/>
                <path d="M312.972,27.544L15,27.544C6.716,27.544 0,34.27 0,42.567L0,86.87C0,95.167 6.716,101.893 15,101.893L312.972,101.893L312.972,27.544Z" style="fill:rgb(37,98,182);fill-rule:nonzero;"/>
                <path d="M497,27.544L435.282,27.544L435.282,101.893L497,101.893C505.284,101.893 512,95.167 512,86.87L512,42.566C512,34.27 505.284,27.544 497,27.544Z" style="fill:rgb(37,98,182);fill-rule:nonzero;"/>
            </g>
        </g>
    </g>
</svg>
