<?xml version="1.0" encoding="UTF-8" standalone="no"?>
<!DOCTYPE svg PUBLIC "-//W3C//DTD SVG 1.1//EN" "http://www.w3.org/Graphics/SVG/1.1/DTD/svg11.dtd">
<svg width="100%" height="100%" viewBox="0 0 513 513" version="1.1" xmlns="http://www.w3.org/2000/svg" xmlns:xlink="http://www.w3.org/1999/xlink" xml:space="preserve" xmlns:serif="http://www.serif.com/" style="fill-rule:evenodd;clip-rule:evenodd;stroke-linejoin:round;stroke-miterlimit:2;">
    <g>
        <g>
            <path d="M503.485,196.551L268.818,25.885C260.285,19.485 251.751,19.485 243.218,25.885L8.551,196.551C-8.516,207.218 2.151,234.951 21.351,234.951L64.018,234.951L64.018,469.618C64.018,482.418 72.551,490.951 85.351,490.951L426.684,490.951C439.484,490.951 448.017,482.418 448.017,469.618L448.017,234.951L490.684,234.951C509.885,234.951 520.551,207.218 503.485,196.551ZM256.018,448.285C185.618,448.285 128.018,390.685 128.018,320.285C128.018,249.885 185.618,192.285 256.018,192.285C326.418,192.285 384.018,249.885 384.018,320.285C384.018,390.685 326.418,448.285 256.018,448.285Z" style="fill:rgb(22,73,139);fill-rule:nonzero;"/>
        </g>
    </g>
    <g>
        <g>
            <path d="M288.018,288.285L288.018,224.285L224.018,224.285L224.018,288.285L160.018,288.285L160.018,352.285L224.018,352.285L224.018,416.285L288.018,416.285L288.018,352.285L352.018,352.285L352.018,288.285L288.018,288.285Z" style="fill:rgb(22,73,139);fill-rule:nonzero;"/>
        </g>
    </g>
</svg>
